<svg width="50" height="31" viewBox="0 0 50 31" fill="none" xmlns="http://www.w3.org/2000/svg">
  <g clip-path="url(#clip0_6_215)">
    <path fill-rule="evenodd" clip-rule="evenodd"
      d="M18.053 27.1041H31.4352V3.24435H18.053V27.1041Z" fill="#FF5F00" />
    <path fill-rule="evenodd" clip-rule="evenodd"
      d="M18.9029 15.1742C18.9029 10.3336 21.1872 6.02247 24.7443 3.24432C22.1427 1.21225 18.8604 0 15.2927 0C6.84668 0 0.00012207 6.79382 0.00012207 15.1742C0.00012207 23.5545 6.84668 30.3484 15.2927 30.3484C18.8604 30.3484 22.1427 29.1361 24.7443 27.104C21.1872 24.3255 18.9029 20.0147 18.9029 15.1742Z"
      fill="#EB001B" />
    <path fill-rule="evenodd" clip-rule="evenodd"
      d="M49.011 24.577V23.9882H48.8559L48.6779 24.3932L48.4995 23.9882H48.3444V24.577H48.4536V24.1327L48.621 24.5159H48.7344L48.9018 24.1319V24.577H49.011ZM48.0292 24.577V24.0885H48.228V23.989H47.7225V24.0885H47.9208V24.577H48.0292ZM49.4885 15.1741C49.4885 23.5544 42.6415 30.3483 34.1959 30.3483C30.6282 30.3483 27.3455 29.136 24.7443 27.1039C28.3014 24.3258 30.5857 20.0146 30.5857 15.1741C30.5857 10.3339 28.3014 6.02278 24.7443 3.24422C27.3455 1.21214 30.6282 -0.000106812 34.1959 -0.000106812C42.6415 -0.000106812 49.4885 6.79371 49.4885 15.1741Z"
      fill="#F79E1B" />
  </g>
  <defs>
    <clipPath id="clip0_6_215">
      <rect width="50" height="30.3922" fill="white" />
    </clipPath>
  </defs>
</svg>
  