<svg width="44" height="14" viewBox="0 0 44 14" fill="none" xmlns="http://www.w3.org/2000/svg">
  <path d="M18.7243 13.7982H15.224L17.4133 0.245804H20.9134L18.7243 13.7982Z" fill="white" />
  <path
    d="M31.4132 0.57707C30.7228 0.302857 29.6277 9.15527e-05 28.2737 9.15527e-05C24.817 9.15527e-05 22.3829 1.84543 22.3679 4.4837C22.3392 6.43021 24.1107 7.51135 25.4356 8.16037C26.7899 8.82358 27.2502 9.25646 27.2502 9.84762C27.2364 10.7555 26.1559 11.174 25.1481 11.174C23.7507 11.174 23.0019 10.9583 21.8639 10.4531L21.403 10.2366L20.9132 13.2788C21.7342 13.6533 23.2467 13.9855 24.817 14.0001C28.4898 14.0001 30.8809 12.1833 30.9092 9.37182C30.9232 7.82906 29.9877 6.64693 27.9711 5.68096C26.7468 5.06087 25.997 4.64274 25.997 4.00828C26.0114 3.43149 26.6312 2.84072 28.0132 2.84072C29.1511 2.81178 29.9872 3.08561 30.6206 3.35963L30.9371 3.50354L31.4132 0.57707Z"
    fill="white" />
  <path
    d="M36.0653 8.99705C36.3535 8.21849 37.4627 5.20521 37.4627 5.20521C37.4482 5.23414 37.7504 4.41227 37.9233 3.90773L38.1679 5.07548C38.1679 5.07548 38.8307 8.31947 38.9747 8.99705C38.4276 8.99705 36.7566 8.99705 36.0653 8.99705ZM40.3859 0.245804H37.6784C36.8435 0.245804 36.2092 0.490699 35.849 1.37025L30.6497 13.798H34.3225C34.3225 13.798 34.9271 12.1253 35.0571 11.7651C35.46 11.7651 39.0329 11.7651 39.5512 11.7651C39.6517 12.2409 39.9688 13.798 39.9688 13.798H43.2098L40.3859 0.245804Z"
    fill="white" />
  <path
    d="M12.3003 0.245804L8.87238 9.48723L8.49779 7.61296C7.86403 5.4503 5.87644 3.10061 3.65839 1.93228L6.79827 13.7838H10.4997L16.0016 0.245804H12.3003Z"
    fill="white" />
  <path
    d="M5.68926 0.245804H0.057614L0 0.519634C4.39304 1.64427 7.30246 4.35517 8.49781 7.61353L7.27356 1.385C7.072 0.519442 6.4526 0.274356 5.68926 0.245804Z"
    fill="white" />
</svg>
  